<svg xmlns="http://www.w3.org/2000/svg" viewBox="0 0 32 32">
  <rect width="32" height="32" rx="8" fill="#F59E0B"/>
  <path d="M24 13.5C23.7 12.6 22.9 12 22 12H10C9.1 12 8.3 12.6 8 13.5L6 19V25C6 25.6 6.4 26 7 26H8C8.6 26 9 25.6 9 25V24H23V25C23 25.6 23.4 26 24 26H25C25.6 26 26 25.6 26 25V19L24 13.5ZM10.5 22C9.7 22 9 21.3 9 20.5S9.7 19 10.5 19 12 19.7 12 20.5 11.3 22 10.5 22ZM21.5 22C20.7 22 20 21.3 20 20.5S20.7 19 21.5 19 23 19.7 23 20.5 22.3 22 21.5 22ZM9 18L10.5 13.5H21.5L23 18H9Z" fill="white"/>
</svg>
